<svg xmlns="http://www.w3.org/2000/svg" width="1000" height="520" viewBox="0 0 1000 520" role="img" aria-label="Abduvaliy Abdulazizov: AI Software Engineer, Computer Vision. A circuit board drawn from my GitHub: the CPU in the middle is me, the chips around it are my projects and contributions."><title>Abduvaliy Abdulazizov: AI Software Engineer, Computer Vision. A circuit board drawn from my GitHub: the CPU in the middle is me, the chips around it are my projects and contributions.</title><style>text{font-family:ui-monospace,'SFMono-Regular','JetBrains Mono','Cascadia Mono',Menlo,Consolas,'DejaVu Sans Mono','Liberation Mono',monospace;font-variant-ligatures:none}.breathe{animation:breathe 5s ease-in-out infinite alternate}@keyframes breathe{from{opacity:.45}}.blink{animation:blink 1.5s ease-in-out infinite alternate}@keyframes blink{from{opacity:.3}}@media (prefers-reduced-motion:reduce){*{animation:none!important}}</style><defs><linearGradient id="bd" x1="0" y1="0" x2="1" y2="1"><stop offset="0" stop-color="#eef4ec"/><stop offset="1" stop-color="#dfe9dc"/></linearGradient><radialGradient id="vg" cx=".5" cy=".46" r=".72"><stop offset=".55" stop-color="#dfe9dc" stop-opacity="0"/><stop offset="1" stop-color="#dfe9dc" stop-opacity=".75"/></radialGradient><pattern id="dots" width="12" height="12" patternUnits="userSpaceOnUse"><circle cx="6" cy="6" r=".9" fill="#000000" fill-opacity="0.05"/></pattern><pattern id="pv" width="7.0" height="6" patternUnits="userSpaceOnUse"><rect y=".6" width="7.0" height="2.8" rx=".6" fill="#8a929c"/></pattern><pattern id="ph" width="6" height="7.0" patternUnits="userSpaceOnUse"><rect x=".6" width="2.8" height="7.0" rx=".6" fill="#8a929c"/></pattern><pattern id="pvg" width="7.0" height="6" patternUnits="userSpaceOnUse"><rect y=".6" width="7.0" height="2.8" rx=".6" fill="#cf9310"/></pattern><pattern id="phg" width="6" height="7.0" patternUnits="userSpaceOnUse"><rect x=".6" width="2.8" height="7.0" rx=".6" fill="#cf9310"/></pattern><radialGradient id="pg"><stop offset="0" stop-color="#ff8c1a" stop-opacity=".95"/><stop offset="1" stop-color="#ff8c1a" stop-opacity="0"/></radialGradient><radialGradient id="cg"><stop offset="0" stop-color="#cf9310" stop-opacity=".30"/><stop offset="1" stop-color="#cf9310" stop-opacity="0"/></radialGradient><linearGradient id="ihs" x1="0" y1="0" x2="0" y2="1"><stop offset="0" stop-color="#3b414b"/><stop offset="1" stop-color="#24282f"/></linearGradient><linearGradient id="sheen" x1="0" y1="0" x2="0" y2="1"><stop offset="0" stop-color="#ffffff" stop-opacity=".09"/><stop offset=".5" stop-color="#ffffff" stop-opacity="0"/></linearGradient><linearGradient id="xtal" x1="0" y1="0" x2="0" y2="1"><stop offset="0" stop-color="#dfe3e8"/><stop offset="1" stop-color="#8b929b"/></linearGradient><radialGradient id="led"><stop offset="0" stop-color="#d7ffe0"/><stop offset=".55" stop-color="#2da44e"/><stop offset="1" stop-color="#2da44e" stop-opacity=".2"/></radialGradient></defs><rect x="8" y="8" width="984" height="504" rx="22" fill="url(#bd)" stroke="#c3d2c0" stroke-width="2"/><rect x="8" y="8" width="984" height="504" rx="22" fill="url(#dots)"/><rect x="8" y="8" width="984" height="504" rx="22" fill="url(#vg)"/><g fill="none" stroke-linecap="round" stroke-linejoin="round"><path d="M341.0 232.0 L357.0 248.0 L415.0 248.0" stroke="#dfe9dc" stroke-opacity=".8" stroke-width="4.2"/><path d="M341.0 232.0 L357.0 248.0 L415.0 248.0" stroke="#b8732c" stroke-opacity=".92" stroke-width="2"/><path d="M303.0 232.0 L296.0 239.0 L296.0 247.0" stroke="#dfe9dc" stroke-opacity=".8" stroke-width="4.2"/><path d="M303.0 232.0 L296.0 239.0 L296.0 247.0" stroke="#b8732c" stroke-opacity=".92" stroke-width="2"/></g><circle cx="296" cy="250" r="3.4" fill="#ffffff" stroke="#b8732c" stroke-width="2"/><rect x="300" y="228" width="7" height="8" rx="1" fill="#8a929c"/><rect x="337" y="228" width="7" height="8" rx="1" fill="#8a929c"/><rect x="305" y="224" width="34" height="16" rx="8" fill="url(#xtal)" stroke="#6c737c" stroke-width=".8"/><text x="322.0" y="235.0" font-size="8" fill="#2b3036" font-weight="700" text-anchor="middle">24h</text><text x="305.0" y="218.0" font-size="8.5" fill="#6a7d70" font-weight="400" text-anchor="start">Y1</text><rect x="386" y="177" width="3" height="6" fill="#8a929c"/><rect x="395" y="177" width="3" height="6" fill="#8a929c"/><rect x="389" y="177.4" width="6" height="5.2" fill="#b08d5b"/><text x="386.0" y="173.0" font-size="7.5" fill="#6a7d70" font-weight="400" text-anchor="start">C1</text><rect x="594" y="177" width="3" height="6" fill="#8a929c"/><rect x="603" y="177" width="3" height="6" fill="#8a929c"/><rect x="597" y="177.4" width="6" height="5.2" fill="#b08d5b"/><text x="594.0" y="173.0" font-size="7.5" fill="#6a7d70" font-weight="400" text-anchor="start">C2</text><rect x="386" y="361" width="3" height="6" fill="#8a929c"/><rect x="395" y="361" width="3" height="6" fill="#8a929c"/><rect x="389" y="361.4" width="6" height="5.2" fill="#b08d5b"/><text x="386.0" y="357.0" font-size="7.5" fill="#6a7d70" font-weight="400" text-anchor="start">C3</text><rect x="594" y="361" width="3" height="6" fill="#8a929c"/><rect x="603" y="361" width="3" height="6" fill="#8a929c"/><rect x="597" y="361.4" width="6" height="5.2" fill="#b08d5b"/><text x="594.0" y="357.0" font-size="7.5" fill="#6a7d70" font-weight="400" text-anchor="start">C4</text><circle cx="172" cy="206" r="2.7" fill="#ffffff" stroke="#b8732c" stroke-opacity=".8" stroke-width="1.6"/><circle cx="172" cy="338" r="2.7" fill="#ffffff" stroke="#b8732c" stroke-opacity=".8" stroke-width="1.6"/><circle cx="828" cy="206" r="2.7" fill="#ffffff" stroke="#b8732c" stroke-opacity=".8" stroke-width="1.6"/><circle cx="828" cy="338" r="2.7" fill="#ffffff" stroke="#b8732c" stroke-opacity=".8" stroke-width="1.6"/><circle cx="34" cy="118" r="2.7" fill="#ffffff" stroke="#b8732c" stroke-opacity=".8" stroke-width="1.6"/><circle cx="34" cy="146" r="2.7" fill="#ffffff" stroke="#b8732c" stroke-opacity=".8" stroke-width="1.6"/><circle cx="34" cy="174" r="2.7" fill="#ffffff" stroke="#b8732c" stroke-opacity=".8" stroke-width="1.6"/><circle cx="34" cy="202" r="2.7" fill="#ffffff" stroke="#b8732c" stroke-opacity=".8" stroke-width="1.6"/><circle cx="34" cy="230" r="2.7" fill="#ffffff" stroke="#b8732c" stroke-opacity=".8" stroke-width="1.6"/><circle cx="34" cy="258" r="2.7" fill="#ffffff" stroke="#b8732c" stroke-opacity=".8" stroke-width="1.6"/><circle cx="34" cy="286" r="2.7" fill="#ffffff" stroke="#b8732c" stroke-opacity=".8" stroke-width="1.6"/><circle cx="34" cy="314" r="2.7" fill="#ffffff" stroke="#b8732c" stroke-opacity=".8" stroke-width="1.6"/><circle cx="34" cy="342" r="2.7" fill="#ffffff" stroke="#b8732c" stroke-opacity=".8" stroke-width="1.6"/><circle cx="34" cy="370" r="2.7" fill="#ffffff" stroke="#b8732c" stroke-opacity=".8" stroke-width="1.6"/><circle cx="34" cy="398" r="2.7" fill="#ffffff" stroke="#b8732c" stroke-opacity=".8" stroke-width="1.6"/><circle cx="966" cy="118" r="2.7" fill="#ffffff" stroke="#b8732c" stroke-opacity=".8" stroke-width="1.6"/><circle cx="966" cy="146" r="2.7" fill="#ffffff" stroke="#b8732c" stroke-opacity=".8" stroke-width="1.6"/><circle cx="966" cy="174" r="2.7" fill="#ffffff" stroke="#b8732c" stroke-opacity=".8" stroke-width="1.6"/><circle cx="966" cy="202" r="2.7" fill="#ffffff" stroke="#b8732c" stroke-opacity=".8" stroke-width="1.6"/><circle cx="966" cy="230" r="2.7" fill="#ffffff" stroke="#b8732c" stroke-opacity=".8" stroke-width="1.6"/><circle cx="966" cy="258" r="2.7" fill="#ffffff" stroke="#b8732c" stroke-opacity=".8" stroke-width="1.6"/><circle cx="966" cy="286" r="2.7" fill="#ffffff" stroke="#b8732c" stroke-opacity=".8" stroke-width="1.6"/><circle cx="966" cy="314" r="2.7" fill="#ffffff" stroke="#b8732c" stroke-opacity=".8" stroke-width="1.6"/><circle cx="966" cy="342" r="2.7" fill="#ffffff" stroke="#b8732c" stroke-opacity=".8" stroke-width="1.6"/><circle cx="966" cy="370" r="2.7" fill="#ffffff" stroke="#b8732c" stroke-opacity=".8" stroke-width="1.6"/><circle cx="966" cy="398" r="2.7" fill="#ffffff" stroke="#b8732c" stroke-opacity=".8" stroke-width="1.6"/><circle cx="30" cy="30" r="11" fill="none" stroke="#b8732c" stroke-width="3" stroke-opacity=".9"/><circle cx="30" cy="30" r="7" fill="#ffffff"/><circle cx="970" cy="30" r="11" fill="none" stroke="#b8732c" stroke-width="3" stroke-opacity=".9"/><circle cx="970" cy="30" r="7" fill="#ffffff"/><circle cx="30" cy="490" r="11" fill="none" stroke="#b8732c" stroke-width="3" stroke-opacity=".9"/><circle cx="30" cy="490" r="7" fill="#ffffff"/><circle cx="970" cy="490" r="11" fill="none" stroke="#b8732c" stroke-width="3" stroke-opacity=".9"/><circle cx="970" cy="490" r="7" fill="#ffffff"/><g fill="none" stroke-linecap="round" stroke-linejoin="round"><path d="M269.0 266.0 L415.0 266.0" stroke="#dfe9dc" stroke-opacity=".8" stroke-width="4.2"/><path d="M269.0 266.0 L415.0 266.0" stroke="#b8732c" stroke-opacity=".92" stroke-width="2"/><path d="M269.0 272.0 L415.0 272.0" stroke="#dfe9dc" stroke-opacity=".8" stroke-width="4.2"/><path d="M269.0 272.0 L415.0 272.0" stroke="#b8732c" stroke-opacity=".92" stroke-width="2"/><path d="M269.0 278.0 L415.0 278.0" stroke="#dfe9dc" stroke-opacity=".8" stroke-width="4.2"/><path d="M269.0 278.0 L415.0 278.0" stroke="#b8732c" stroke-opacity=".92" stroke-width="2"/></g><g fill="none" stroke-linecap="round" stroke-linejoin="round"><path d="M269.0 134.0 L287.5 134.0 L383.5 230.0 L415.0 230.0" stroke="#dfe9dc" stroke-opacity=".8" stroke-width="4.2"/><path d="M269.0 134.0 L287.5 134.0 L383.5 230.0 L415.0 230.0" stroke="#b8732c" stroke-opacity=".92" stroke-width="2"/><path d="M269.0 140.0 L285.0 140.0 L381.0 236.0 L415.0 236.0" stroke="#dfe9dc" stroke-opacity=".8" stroke-width="4.2"/><path d="M269.0 140.0 L285.0 140.0 L381.0 236.0 L415.0 236.0" stroke="#b8732c" stroke-opacity=".92" stroke-width="2"/><path d="M269.0 146.0 L282.5 146.0 L378.5 242.0 L415.0 242.0" stroke="#dfe9dc" stroke-opacity=".8" stroke-width="4.2"/><path d="M269.0 146.0 L282.5 146.0 L378.5 242.0 L415.0 242.0" stroke="#b8732c" stroke-opacity=".92" stroke-width="2"/></g><g fill="none" stroke-linecap="round" stroke-linejoin="round"><path d="M494.0 170.0 L494.0 187.0" stroke="#dfe9dc" stroke-opacity=".8" stroke-width="4.2"/><path d="M494.0 170.0 L494.0 187.0" stroke="#b8732c" stroke-opacity=".92" stroke-width="2"/><path d="M500.0 170.0 L500.0 187.0" stroke="#dfe9dc" stroke-opacity=".8" stroke-width="4.2"/><path d="M500.0 170.0 L500.0 187.0" stroke="#b8732c" stroke-opacity=".92" stroke-width="2"/><path d="M506.0 170.0 L506.0 187.0" stroke="#dfe9dc" stroke-opacity=".8" stroke-width="4.2"/><path d="M506.0 170.0 L506.0 187.0" stroke="#b8732c" stroke-opacity=".92" stroke-width="2"/></g><g fill="none" stroke-linecap="round" stroke-linejoin="round"><path d="M494.0 375.0 L494.0 357.0" stroke="#dfe9dc" stroke-opacity=".8" stroke-width="4.2"/><path d="M494.0 375.0 L494.0 357.0" stroke="#b8732c" stroke-opacity=".92" stroke-width="2"/><path d="M500.0 375.0 L500.0 357.0" stroke="#dfe9dc" stroke-opacity=".8" stroke-width="4.2"/><path d="M500.0 375.0 L500.0 357.0" stroke="#b8732c" stroke-opacity=".92" stroke-width="2"/><path d="M506.0 375.0 L506.0 357.0" stroke="#dfe9dc" stroke-opacity=".8" stroke-width="4.2"/><path d="M506.0 375.0 L506.0 357.0" stroke="#b8732c" stroke-opacity=".92" stroke-width="2"/></g><g fill="none" stroke-linecap="round" stroke-linejoin="round"><path d="M269.0 398.0 L282.5 398.0 L378.5 302.0 L415.0 302.0" stroke="#dfe9dc" stroke-opacity=".8" stroke-width="4.2"/><path d="M269.0 398.0 L282.5 398.0 L378.5 302.0 L415.0 302.0" stroke="#b8732c" stroke-opacity=".92" stroke-width="2"/><path d="M269.0 404.0 L285.0 404.0 L381.0 308.0 L415.0 308.0" stroke="#dfe9dc" stroke-opacity=".8" stroke-width="4.2"/><path d="M269.0 404.0 L285.0 404.0 L381.0 308.0 L415.0 308.0" stroke="#b8732c" stroke-opacity=".92" stroke-width="2"/><path d="M269.0 410.0 L287.5 410.0 L383.5 314.0 L415.0 314.0" stroke="#dfe9dc" stroke-opacity=".8" stroke-width="4.2"/><path d="M269.0 410.0 L287.5 410.0 L383.5 314.0 L415.0 314.0" stroke="#b8732c" stroke-opacity=".92" stroke-width="2"/></g><g fill="none" stroke-linecap="round" stroke-linejoin="round"><path d="M731.0 134.0 L712.5 134.0 L616.5 230.0 L585.0 230.0" stroke="#cf9310" stroke-opacity=".16" stroke-width="6"/><path d="M731.0 134.0 L712.5 134.0 L616.5 230.0 L585.0 230.0" stroke="#dfe9dc" stroke-opacity=".8" stroke-width="4.2"/><path d="M731.0 134.0 L712.5 134.0 L616.5 230.0 L585.0 230.0" stroke="#cf9310" stroke-opacity=".92" stroke-width="2"/><path d="M731.0 140.0 L715.0 140.0 L619.0 236.0 L585.0 236.0" stroke="#cf9310" stroke-opacity=".16" stroke-width="6"/><path d="M731.0 140.0 L715.0 140.0 L619.0 236.0 L585.0 236.0" stroke="#dfe9dc" stroke-opacity=".8" stroke-width="4.2"/><path d="M731.0 140.0 L715.0 140.0 L619.0 236.0 L585.0 236.0" stroke="#cf9310" stroke-opacity=".92" stroke-width="2"/><path d="M731.0 146.0 L717.5 146.0 L621.5 242.0 L585.0 242.0" stroke="#cf9310" stroke-opacity=".16" stroke-width="6"/><path d="M731.0 146.0 L717.5 146.0 L621.5 242.0 L585.0 242.0" stroke="#dfe9dc" stroke-opacity=".8" stroke-width="4.2"/><path d="M731.0 146.0 L717.5 146.0 L621.5 242.0 L585.0 242.0" stroke="#cf9310" stroke-opacity=".92" stroke-width="2"/></g><g fill="none" stroke-linecap="round" stroke-linejoin="round"><path d="M731.0 266.0 L585.0 266.0" stroke="#cf9310" stroke-opacity=".16" stroke-width="6"/><path d="M731.0 266.0 L585.0 266.0" stroke="#dfe9dc" stroke-opacity=".8" stroke-width="4.2"/><path d="M731.0 266.0 L585.0 266.0" stroke="#cf9310" stroke-opacity=".92" stroke-width="2"/><path d="M731.0 272.0 L585.0 272.0" stroke="#cf9310" stroke-opacity=".16" stroke-width="6"/><path d="M731.0 272.0 L585.0 272.0" stroke="#dfe9dc" stroke-opacity=".8" stroke-width="4.2"/><path d="M731.0 272.0 L585.0 272.0" stroke="#cf9310" stroke-opacity=".92" stroke-width="2"/><path d="M731.0 278.0 L585.0 278.0" stroke="#cf9310" stroke-opacity=".16" stroke-width="6"/><path d="M731.0 278.0 L585.0 278.0" stroke="#dfe9dc" stroke-opacity=".8" stroke-width="4.2"/><path d="M731.0 278.0 L585.0 278.0" stroke="#cf9310" stroke-opacity=".92" stroke-width="2"/></g><g fill="none" stroke-linecap="round" stroke-linejoin="round"><path d="M731.0 398.0 L717.5 398.0 L621.5 302.0 L585.0 302.0" stroke="#cf9310" stroke-opacity=".16" stroke-width="6"/><path d="M731.0 398.0 L717.5 398.0 L621.5 302.0 L585.0 302.0" stroke="#dfe9dc" stroke-opacity=".8" stroke-width="4.2"/><path d="M731.0 398.0 L717.5 398.0 L621.5 302.0 L585.0 302.0" stroke="#cf9310" stroke-opacity=".92" stroke-width="2"/><path d="M731.0 404.0 L715.0 404.0 L619.0 308.0 L585.0 308.0" stroke="#cf9310" stroke-opacity=".16" stroke-width="6"/><path d="M731.0 404.0 L715.0 404.0 L619.0 308.0 L585.0 308.0" stroke="#dfe9dc" stroke-opacity=".8" stroke-width="4.2"/><path d="M731.0 404.0 L715.0 404.0 L619.0 308.0 L585.0 308.0" stroke="#cf9310" stroke-opacity=".92" stroke-width="2"/><path d="M731.0 410.0 L712.5 410.0 L616.5 314.0 L585.0 314.0" stroke="#cf9310" stroke-opacity=".16" stroke-width="6"/><path d="M731.0 410.0 L712.5 410.0 L616.5 314.0 L585.0 314.0" stroke="#dfe9dc" stroke-opacity=".8" stroke-width="4.2"/><path d="M731.0 410.0 L712.5 410.0 L616.5 314.0 L585.0 314.0" stroke="#cf9310" stroke-opacity=".92" stroke-width="2"/></g><g fill="none" stroke-linecap="round" stroke-linejoin="round"><path d="M600.0 122.0 L731.0 122.0" stroke="#cf9310" stroke-opacity=".16" stroke-width="6"/><path d="M600.0 122.0 L731.0 122.0" stroke="#dfe9dc" stroke-opacity=".8" stroke-width="4.2"/><path d="M600.0 122.0 L731.0 122.0" stroke="#cf9310" stroke-opacity=".92" stroke-width="2"/></g><rect x="659.5" y="118.0" width="12" height="8" rx="1.5" fill="#cf9310"/><text x="665.5" y="112.0" font-size="9.5" fill="#cf9310" font-weight="700" text-anchor="middle">GPIO 11</text><circle class="breathe" cx="500.0" cy="272.0" r="128" fill="url(#cg)"/><rect x="415.0" y="200.0" width="7.0" height="144.0" fill="url(#pv)"/><rect x="578.0" y="200.0" width="7.0" height="144.0" fill="url(#pv)"/><rect x="428.0" y="187.0" width="144.0" height="7.0" fill="url(#ph)"/><rect x="428.0" y="350.0" width="144.0" height="7.0" fill="url(#ph)"/><rect x="422.0" y="194.0" width="156.0" height="156.0" rx="8" fill="#24282f" stroke="#3b414b"/><rect x="436.0" y="208.0" width="128.0" height="128.0" rx="5" fill="url(#ihs)" stroke="#3b414b" stroke-opacity=".8"/><path d="M428.0 200.0 h12 l-12 12 z" fill="#cf9310" fill-opacity=".85"/><text x="500.0" y="251.0" font-size="17" fill="#f3f4f6" font-weight="700" text-anchor="middle">Abduvaliy</text><text x="500.0" y="270.0" font-size="9.5" fill="#a6aeb8" font-weight="400" text-anchor="middle">AI Software Engineer</text><text x="500.0" y="284.0" font-size="9.5" fill="#cf9310" font-weight="600" text-anchor="middle">Computer Vision</text><line x1="456.0" y1="298" x2="544.0" y2="298" stroke="#a6aeb8" stroke-opacity=".35"/><text x="500.0" y="314.0" font-size="8" fill="#a6aeb8" font-weight="400" text-anchor="middle">HBAI Academy</text><text x="500.0" y="325.0" font-size="8" fill="#a6aeb8" font-weight="400" text-anchor="middle">Foundation Stage</text><text x="422.0" y="183.0" font-size="8.5" fill="#6a7d70" font-weight="400" text-anchor="start">U1</text><rect x="133.0" y="226.0" width="140.0" height="92.0" rx="6" fill="none" stroke="#2f3e35" stroke-opacity=".7" stroke-width="1.3" stroke-dasharray="5 4"/><rect x="137.0" y="243.0" width="7.0" height="58.0" fill="url(#pv)"/><rect x="262.0" y="243.0" width="7.0" height="58.0" fill="url(#pv)"/><rect x="150.0" y="230.0" width="106.0" height="7.0" fill="url(#ph)"/><rect x="150.0" y="307.0" width="106.0" height="7.0" fill="url(#ph)"/><rect x="144.0" y="237.0" width="118.0" height="70.0" rx="4" fill="#24282f" stroke="#3b414b" stroke-width="1"/><rect x="147.0" y="240.0" width="112.0" height="64.0" rx="2.5" fill="url(#sheen)"/><circle cx="152.0" cy="245.0" r="2" fill="#3b414b"/><text x="203.0" y="271.0" font-size="11.5" fill="#f3f4f6" font-weight="600" text-anchor="middle">LumioHub</text><text x="203.0" y="285.0" font-size="8.5" fill="#a6aeb8" font-weight="400" text-anchor="middle">TypeScript · Team</text><rect x="152.0" y="300.5" width="102.0" height="2.6" rx="1.3" fill="#3178c6"/><text x="144.0" y="221.0" font-size="8.5" fill="#6a7d70" font-weight="400" text-anchor="start">U2</text><rect x="80.0" y="99.0" width="193.0" height="82.0" rx="6" fill="none" stroke="#2f3e35" stroke-opacity=".7" stroke-width="1.3" stroke-dasharray="5 4"/><rect x="84.0" y="116.0" width="7.0" height="48.0" fill="url(#pv)"/><rect x="262.0" y="116.0" width="7.0" height="48.0" fill="url(#pv)"/><rect x="97.0" y="103.0" width="159.0" height="7.0" fill="url(#ph)"/><rect x="97.0" y="170.0" width="159.0" height="7.0" fill="url(#ph)"/><rect x="91.0" y="110.0" width="171.0" height="60.0" rx="4" fill="#24282f" stroke="#3b414b" stroke-width="1"/><rect x="94.0" y="113.0" width="165.0" height="54.0" rx="2.5" fill="url(#sheen)"/><circle cx="99.0" cy="118.0" r="2" fill="#3b414b"/><text x="176.5" y="139.0" font-size="11.5" fill="#f3f4f6" font-weight="600" text-anchor="middle">OCR (Photo to Text)</text><text x="176.5" y="153.0" font-size="8.5" fill="#a6aeb8" font-weight="400" text-anchor="middle">Python · Private</text><rect x="99.0" y="163.5" width="155.0" height="2.6" rx="1.3" fill="#3572A5"/><text x="91.0" y="94.0" font-size="8.5" fill="#6a7d70" font-weight="400" text-anchor="start">U3</text><rect x="400.0" y="99.0" width="7.0" height="58.0" fill="url(#pv)"/><rect x="593.0" y="99.0" width="7.0" height="58.0" fill="url(#pv)"/><rect x="413.0" y="86.0" width="174.0" height="7.0" fill="url(#ph)"/><rect x="413.0" y="163.0" width="174.0" height="7.0" fill="url(#ph)"/><rect x="407.0" y="93.0" width="186.0" height="70.0" rx="4" fill="#24282f" stroke="#3b414b" stroke-width="1"/><rect x="410.0" y="96.0" width="180.0" height="64.0" rx="2.5" fill="url(#sheen)"/><circle cx="415.0" cy="101.0" r="2" fill="#3b414b"/><text x="500.0" y="127.0" font-size="11.5" fill="#f3f4f6" font-weight="600" text-anchor="middle">Acer Nitro Camera Fix</text><text x="500.0" y="141.0" font-size="8.5" fill="#a6aeb8" font-weight="400" text-anchor="middle">Shell · Public</text><rect x="415.0" y="156.5" width="170.0" height="2.6" rx="1.3" fill="#609d39"/><text x="407.0" y="82.0" font-size="8.5" fill="#6a7d70" font-weight="400" text-anchor="start">U4</text><g class="blink"><circle cx="607" cy="79" r="10" fill="#2da44e" fill-opacity=".18"/><circle cx="607" cy="79" r="4.6" fill="url(#led)"/></g><rect x="434.0" y="388.0" width="7.0" height="48.0" fill="url(#pv)"/><rect x="559.0" y="388.0" width="7.0" height="48.0" fill="url(#pv)"/><rect x="447.0" y="375.0" width="106.0" height="7.0" fill="url(#ph)"/><rect x="447.0" y="442.0" width="106.0" height="7.0" fill="url(#ph)"/><rect x="441.0" y="382.0" width="118.0" height="60.0" rx="4" fill="#24282f" stroke="#3b414b" stroke-width="1"/><rect x="444.0" y="385.0" width="112.0" height="54.0" rx="2.5" fill="url(#sheen)"/><circle cx="449.0" cy="390.0" r="2" fill="#3b414b"/><text x="500.0" y="411.0" font-size="11.5" fill="#f3f4f6" font-weight="600" text-anchor="middle">Live View</text><text x="500.0" y="425.0" font-size="8.5" fill="#a6aeb8" font-weight="400" text-anchor="middle">Python · Public</text><rect x="449.0" y="435.5" width="102.0" height="2.6" rx="1.3" fill="#3572A5"/><text x="441.0" y="371.0" font-size="8.5" fill="#6a7d70" font-weight="400" text-anchor="start">U5</text><circle cx="573" cy="368" r="4.2" fill="#c4d0c1" stroke="#6a7d70" stroke-opacity=".35"/><rect x="101.0" y="363.0" width="172.0" height="82.0" rx="6" fill="none" stroke="#2f3e35" stroke-opacity=".7" stroke-width="1.3" stroke-dasharray="5 4"/><rect x="105.0" y="380.0" width="7.0" height="48.0" fill="url(#pv)"/><rect x="262.0" y="380.0" width="7.0" height="48.0" fill="url(#pv)"/><rect x="118.0" y="367.0" width="138.0" height="7.0" fill="url(#ph)"/><rect x="118.0" y="434.0" width="138.0" height="7.0" fill="url(#ph)"/><rect x="112.0" y="374.0" width="150.0" height="60.0" rx="4" fill="#24282f" stroke="#3b414b" stroke-width="1"/><rect x="115.0" y="377.0" width="144.0" height="54.0" rx="2.5" fill="url(#sheen)"/><circle cx="120.0" cy="382.0" r="2" fill="#3b414b"/><text x="187.0" y="403.0" font-size="11.5" fill="#f3f4f6" font-weight="600" text-anchor="middle">MCP for Telegram</text><text x="187.0" y="417.0" font-size="8.5" fill="#a6aeb8" font-weight="400" text-anchor="middle">Python · Private</text><rect x="120.0" y="427.5" width="134.0" height="2.6" rx="1.3" fill="#3572A5"/><text x="112.0" y="358.0" font-size="8.5" fill="#6a7d70" font-weight="400" text-anchor="start">U6</text><rect x="731.0" y="116.0" width="7.0" height="48.0" fill="url(#pvg)"/><rect x="860.0" y="116.0" width="7.0" height="48.0" fill="url(#pvg)"/><rect x="744.0" y="103.0" width="110.0" height="7.0" fill="url(#phg)"/><rect x="744.0" y="170.0" width="110.0" height="7.0" fill="url(#phg)"/><rect x="738.0" y="110.0" width="122.0" height="60.0" rx="4" fill="#24282f" stroke="#3b414b" stroke-width="1"/><rect x="741.0" y="113.0" width="116.0" height="54.0" rx="2.5" fill="url(#sheen)"/><circle cx="746.0" cy="118.0" r="2" fill="#3b414b"/><text x="799.0" y="139.0" font-size="11.5" fill="#f3f4f6" font-weight="600" text-anchor="middle">Linux Kernel</text><text x="799.0" y="153.0" font-size="8.5" fill="#a6aeb8" font-weight="400" text-anchor="middle">C · Accepted</text><rect x="746.0" y="163.5" width="106.0" height="2.6" rx="1.3" fill="#555555"/><text x="738.0" y="99.0" font-size="8.5" fill="#6a7d70" font-weight="400" text-anchor="start">U7</text><circle cx="874" cy="96" r="4.2" fill="#c4d0c1" stroke="#6a7d70" stroke-opacity=".35"/><rect x="731.0" y="243.0" width="7.0" height="58.0" fill="url(#pvg)"/><rect x="917.0" y="243.0" width="7.0" height="58.0" fill="url(#pvg)"/><rect x="744.0" y="230.0" width="167.0" height="7.0" fill="url(#phg)"/><rect x="744.0" y="307.0" width="167.0" height="7.0" fill="url(#phg)"/><rect x="738.0" y="237.0" width="179.0" height="70.0" rx="4" fill="#24282f" stroke="#3b414b" stroke-width="1"/><rect x="741.0" y="240.0" width="173.0" height="64.0" rx="2.5" fill="url(#sheen)"/><circle cx="746.0" cy="245.0" r="2" fill="#3b414b"/><text x="827.5" y="271.0" font-size="11.5" fill="#f3f4f6" font-weight="600" text-anchor="middle">Div-Acer-Manager-Max</text><text x="827.5" y="285.0" font-size="8.5" fill="#a6aeb8" font-weight="400" text-anchor="middle">Python · 2 Merged</text><rect x="746.0" y="300.5" width="163.0" height="2.6" rx="1.3" fill="#3572A5"/><text x="738.0" y="226.0" font-size="8.5" fill="#6a7d70" font-weight="400" text-anchor="start">U8</text><circle cx="931" cy="223" r="4.2" fill="#c4d0c1" stroke="#6a7d70" stroke-opacity=".35"/><rect x="731.0" y="380.0" width="7.0" height="48.0" fill="url(#pvg)"/><rect x="938.0" y="380.0" width="7.0" height="48.0" fill="url(#pvg)"/><rect x="744.0" y="367.0" width="188.0" height="7.0" fill="url(#phg)"/><rect x="744.0" y="434.0" width="188.0" height="7.0" fill="url(#phg)"/><rect x="738.0" y="374.0" width="200.0" height="60.0" rx="4" fill="#24282f" stroke="#3b414b" stroke-width="1"/><rect x="741.0" y="377.0" width="194.0" height="54.0" rx="2.5" fill="url(#sheen)"/><circle cx="746.0" cy="382.0" r="2" fill="#3b414b"/><text x="838.0" y="403.0" font-size="11.5" fill="#f3f4f6" font-weight="600" text-anchor="middle">Omarchy Desktop Widgets</text><text x="838.0" y="417.0" font-size="8.5" fill="#a6aeb8" font-weight="400" text-anchor="middle">QML · 1 Merged</text><rect x="746.0" y="427.5" width="184.0" height="2.6" rx="1.3" fill="#44a51c"/><text x="738.0" y="363.0" font-size="8.5" fill="#6a7d70" font-weight="400" text-anchor="start">U9</text><circle cx="952" cy="360" r="4.2" fill="#c4d0c1" stroke="#6a7d70" stroke-opacity=".35"/><g><circle r="6.5" fill="url(#pg)"/><circle r="1.9" fill="#fffaf0"/><animateMotion dur="3.18s" begin="-0.48s" repeatCount="indefinite" calcMode="linear" keyPoints="0;1" keyTimes="0;1" path="M269.0 272.0 L415.0 272.0"/><animate attributeName="opacity" values="0;1;1;0" keyTimes="0;.12;.88;1" dur="3.18s" begin="-0.48s" repeatCount="indefinite"/></g><g><circle r="6.5" fill="url(#pg)"/><circle r="1.9" fill="#fffaf0"/><animateMotion dur="3.77s" begin="-0.27s" repeatCount="indefinite" calcMode="linear" keyPoints="1;0" keyTimes="0;1" path="M269.0 140.0 L285.0 140.0 L381.0 236.0 L415.0 236.0"/><animate attributeName="opacity" values="0;1;1;0" keyTimes="0;.12;.88;1" dur="3.77s" begin="-0.27s" repeatCount="indefinite"/></g><g><circle r="6.5" fill="url(#pg)"/><circle r="1.9" fill="#fffaf0"/><animateMotion dur="3.56s" begin="-1.30s" repeatCount="indefinite" calcMode="linear" keyPoints="0;1" keyTimes="0;1" path="M500.0 170.0 L500.0 187.0"/><animate attributeName="opacity" values="0;1;1;0" keyTimes="0;.12;.88;1" dur="3.56s" begin="-1.30s" repeatCount="indefinite"/></g><g><circle r="6.5" fill="url(#pg)"/><circle r="1.9" fill="#fffaf0"/><animateMotion dur="2.70s" begin="-1.37s" repeatCount="indefinite" calcMode="linear" keyPoints="1;0" keyTimes="0;1" path="M500.0 375.0 L500.0 357.0"/><animate attributeName="opacity" values="0;1;1;0" keyTimes="0;.12;.88;1" dur="2.70s" begin="-1.37s" repeatCount="indefinite"/></g><g><circle r="6.5" fill="url(#pg)"/><circle r="1.9" fill="#fffaf0"/><animateMotion dur="2.67s" begin="-1.16s" repeatCount="indefinite" calcMode="linear" keyPoints="0;1" keyTimes="0;1" path="M269.0 404.0 L285.0 404.0 L381.0 308.0 L415.0 308.0"/><animate attributeName="opacity" values="0;1;1;0" keyTimes="0;.12;.88;1" dur="2.67s" begin="-1.16s" repeatCount="indefinite"/></g><g><circle r="6.5" fill="url(#pg)"/><circle r="1.9" fill="#fffaf0"/><animateMotion dur="2.73s" begin="-0.25s" repeatCount="indefinite" calcMode="linear" keyPoints="1;0" keyTimes="0;1" path="M731.0 140.0 L715.0 140.0 L619.0 236.0 L585.0 236.0"/><animate attributeName="opacity" values="0;1;1;0" keyTimes="0;.12;.88;1" dur="2.73s" begin="-0.25s" repeatCount="indefinite"/></g><g><circle r="6.5" fill="url(#pg)"/><circle r="1.9" fill="#fffaf0"/><animateMotion dur="3.36s" begin="-2.78s" repeatCount="indefinite" calcMode="linear" keyPoints="0;1" keyTimes="0;1" path="M731.0 272.0 L585.0 272.0"/><animate attributeName="opacity" values="0;1;1;0" keyTimes="0;.12;.88;1" dur="3.36s" begin="-2.78s" repeatCount="indefinite"/></g><g><circle r="6.5" fill="url(#pg)"/><circle r="1.9" fill="#fffaf0"/><animateMotion dur="2.82s" begin="-0.63s" repeatCount="indefinite" calcMode="linear" keyPoints="1;0" keyTimes="0;1" path="M731.0 404.0 L715.0 404.0 L619.0 308.0 L585.0 308.0"/><animate attributeName="opacity" values="0;1;1;0" keyTimes="0;.12;.88;1" dur="2.82s" begin="-0.63s" repeatCount="indefinite"/></g><g><circle r="6.5" fill="url(#pg)"/><circle r="1.9" fill="#fffaf0"/><animateMotion dur="3.60s" begin="-1.20s" repeatCount="indefinite" calcMode="linear" keyPoints="0;1" keyTimes="0;1" path="M600.0 122.0 L731.0 122.0"/><animate attributeName="opacity" values="0;1;1;0" keyTimes="0;.12;.88;1" dur="3.60s" begin="-1.20s" repeatCount="indefinite"/></g><text x="56.0" y="50.0" font-size="15" fill="#2f3e35" font-weight="700" text-anchor="start" letter-spacing=".6">Abduvaliy Abdulazizov</text><text x="56.0" y="68.0" font-size="10.5" fill="#6a7d70" font-weight="400" text-anchor="start">AI Software Engineer · Computer Vision</text><text x="944.0" y="50.0" font-size="10.5" fill="#2f3e35" font-weight="600" text-anchor="end">Rev 2026.10.10</text><text x="944.0" y="68.0" font-size="9.5" fill="#6a7d70" font-weight="400" text-anchor="end">Redrawn daily from live GitHub data</text><text x="56.0" y="488.0" font-size="10.5" fill="#2f3e35" font-weight="600" text-anchor="start">Humblebee AI Academy · Foundation Stage</text><text x="944.0" y="488.0" font-size="9.5" fill="#6a7d70" font-weight="400" text-anchor="end">Drawn with plain Python</text></svg>
