<svg xmlns="http://www.w3.org/2000/svg" width="440" height="150" viewBox="0 0 440 150" role="img" aria-label="MCP for Telegram (private, Python): Lets AI assistants read a team&#x27;s Telegram chats. I split it into its own service and keep it running."><title>MCP for Telegram (private, Python): Lets AI assistants read a team&#x27;s Telegram chats. I split it into its own service and keep it running.</title><style>text{font-family:ui-monospace,'SFMono-Regular','JetBrains Mono','Cascadia Mono',Menlo,Consolas,'DejaVu Sans Mono','Liberation Mono',monospace;font-variant-ligatures:none}@media (prefers-reduced-motion:reduce){*{animation:none!important}}</style><defs><linearGradient id="bd" x1="0" y1="0" x2="1" y2="1"><stop offset="0" stop-color="#eef4ec"/><stop offset="1" stop-color="#dfe9dc"/></linearGradient><radialGradient id="vg" cx=".5" cy=".46" r=".72"><stop offset=".55" stop-color="#dfe9dc" stop-opacity="0"/><stop offset="1" stop-color="#dfe9dc" stop-opacity=".75"/></radialGradient><pattern id="dots" width="12" height="12" patternUnits="userSpaceOnUse"><circle cx="6" cy="6" r=".9" fill="#000000" fill-opacity="0.05"/></pattern><pattern id="pv" width="7.0" height="6" patternUnits="userSpaceOnUse"><rect y=".6" width="7.0" height="2.8" rx=".6" fill="#8a929c"/></pattern><pattern id="ph" width="6" height="7.0" patternUnits="userSpaceOnUse"><rect x=".6" width="2.8" height="7.0" rx=".6" fill="#8a929c"/></pattern><pattern id="pvg" width="7.0" height="6" patternUnits="userSpaceOnUse"><rect y=".6" width="7.0" height="2.8" rx=".6" fill="#cf9310"/></pattern><pattern id="phg" width="6" height="7.0" patternUnits="userSpaceOnUse"><rect x=".6" width="2.8" height="7.0" rx=".6" fill="#cf9310"/></pattern><radialGradient id="pg"><stop offset="0" stop-color="#ff8c1a" stop-opacity=".95"/><stop offset="1" stop-color="#ff8c1a" stop-opacity="0"/></radialGradient><radialGradient id="cg"><stop offset="0" stop-color="#cf9310" stop-opacity=".30"/><stop offset="1" stop-color="#cf9310" stop-opacity="0"/></radialGradient><linearGradient id="ihs" x1="0" y1="0" x2="0" y2="1"><stop offset="0" stop-color="#3b414b"/><stop offset="1" stop-color="#24282f"/></linearGradient><linearGradient id="sheen" x1="0" y1="0" x2="0" y2="1"><stop offset="0" stop-color="#ffffff" stop-opacity=".09"/><stop offset=".5" stop-color="#ffffff" stop-opacity="0"/></linearGradient><linearGradient id="xtal" x1="0" y1="0" x2="0" y2="1"><stop offset="0" stop-color="#dfe3e8"/><stop offset="1" stop-color="#8b929b"/></linearGradient><radialGradient id="led"><stop offset="0" stop-color="#d7ffe0"/><stop offset=".55" stop-color="#2da44e"/><stop offset="1" stop-color="#2da44e" stop-opacity=".2"/></radialGradient></defs><rect x="1" y="1" width="438" height="148" rx="12" fill="#f6f8fa" stroke="#d0d7de" stroke-width="1.2"/><rect x="19.0" y="42.0" width="7.0" height="22.0" fill="url(#pv)"/><rect x="76.0" y="42.0" width="7.0" height="22.0" fill="url(#pv)"/><rect x="32.0" y="29.0" width="38.0" height="7.0" fill="url(#ph)"/><rect x="32.0" y="70.0" width="38.0" height="7.0" fill="url(#ph)"/><rect x="26" y="36" width="50" height="34" rx="4" fill="#24282f" stroke="#3b414b"/><rect x="29" y="39" width="44" height="28" rx="2.5" fill="url(#sheen)"/><circle cx="33" cy="43" r="1.8" fill="#3b414b"/><rect x="33" y="63.5" width="36" height="2.6" rx="1.3" fill="#3572A5"/><text x="96.0" y="44.0" font-size="15.5" fill="#1f2328" font-weight="700" text-anchor="start">MCP for Telegram</text><text x="96.0" y="67.0" font-size="12" fill="#57606a" font-weight="400" text-anchor="start">Lets AI assistants read a team&#x27;s Telegram</text><text x="96.0" y="85.0" font-size="12" fill="#57606a" font-weight="400" text-anchor="start">chats. I split it into its own service and</text><text x="96.0" y="103.0" font-size="12" fill="#57606a" font-weight="400" text-anchor="start">keep it running.</text><circle cx="27" cy="128" r="5" fill="#3572A5"/><text x="38.0" y="132.0" font-size="11.5" fill="#57606a" font-weight="400" text-anchor="start">Python</text><rect x="92.8" y="119.0" width="61.6" height="18" rx="9" fill="#8250df" fill-opacity=".14" stroke="#8250df" stroke-opacity=".55"/><text x="100.8" y="132.0" font-size="10.5" fill="#8250df" font-weight="600" text-anchor="start">Private</text></svg>
